<svg width="544" height="544" viewBox="0 0 544 544" fill="none" xmlns="http://www.w3.org/2000/svg">
<path d="M16 98.5602V444.948C16 459.752 28.0016 471.754 42.8063 471.754H501.194C515.998 471.754 528 459.752 528 444.948V153.227C528 138.422 515.998 126.421 501.194 126.421H260.603C250.182 126.421 240.743 120.338 235.291 111.456C225.357 95.2712 207.444 71.7539 187.225 71.7539H42.7644C27.9597 71.7539 16 83.7555 16 98.5602Z" fill="#907CE4"/>
<path d="M528 163.561V435.948C528 450.752 515.998 462.754 501.194 462.754H42.8063C28.0016 462.754 16 450.752 16 435.948V190.699C16 175.895 27.962 163.893 42.7667 163.893H178.178C223.749 163.893 217.382 136.752 248.544 136.754C333.567 136.758 449.546 136.756 501.239 136.755C516.044 136.754 528 148.756 528 163.561Z" fill="url(#paint0_linear_42_2223)"/>
<g clip-path="url(#clip0_42_2223)">
<g filter="url(#filter0_ddiiii_42_2223)">
<path d="M343.833 192C323.517 192 307 208.536 307 228.875V450.125C307 470.464 323.517 487 343.833 487H491.167C511.483 487 528 470.464 528 450.125V292.188C528 287.769 524.418 284.188 520 284.188H454.333C444.147 284.188 435.917 275.948 435.917 265.75V200C435.917 195.582 432.335 192 427.917 192H343.833ZM467.993 205.676C462.955 200.631 454.333 204.2 454.333 211.329V257.75C454.333 262.168 457.915 265.75 462.333 265.75H508.702C515.827 265.75 519.397 257.137 514.362 252.096L467.993 205.676ZM371.458 339.5H463.542C468.606 339.5 472.75 343.648 472.75 348.719C472.75 353.789 468.606 357.938 463.542 357.938H371.458C366.394 357.938 362.25 353.789 362.25 348.719C362.25 343.648 366.394 339.5 371.458 339.5ZM371.458 376.375H463.542C468.606 376.375 472.75 380.523 472.75 385.594C472.75 390.664 468.606 394.812 463.542 394.812H371.458C366.394 394.812 362.25 390.664 362.25 385.594C362.25 380.523 366.394 376.375 371.458 376.375ZM371.458 413.25H463.542C468.606 413.25 472.75 417.398 472.75 422.469C472.75 427.539 468.606 431.688 463.542 431.688H371.458C366.394 431.688 362.25 427.539 362.25 422.469C362.25 417.398 366.394 413.25 371.458 413.25Z" fill="#907CE4"/>
</g>
</g>
<defs>
<filter id="filter0_ddiiii_42_2223" x="295" y="180" width="245" height="319" filterUnits="userSpaceOnUse" color-interpolation-filters="sRGB">
<feFlood flood-opacity="0" result="BackgroundImageFix"/>
<feColorMatrix in="SourceAlpha" type="matrix" values="0 0 0 0 0 0 0 0 0 0 0 0 0 0 0 0 0 0 127 0" result="hardAlpha"/>
<feOffset dx="1" dy="-1"/>
<feGaussianBlur stdDeviation="1"/>
<feColorMatrix type="matrix" values="0 0 0 0 0.498039 0 0 0 0 0.427451 0 0 0 0 0.788235 0 0 0 0.5 0"/>
<feBlend mode="normal" in2="BackgroundImageFix" result="effect1_dropShadow_42_2223"/>
<feColorMatrix in="SourceAlpha" type="matrix" values="0 0 0 0 0 0 0 0 0 0 0 0 0 0 0 0 0 0 127 0" result="hardAlpha"/>
<feOffset dx="-1" dy="1"/>
<feGaussianBlur stdDeviation="1"/>
<feColorMatrix type="matrix" values="0 0 0 0 0.631373 0 0 0 0 0.545098 0 0 0 0 1 0 0 0 0.3 0"/>
<feBlend mode="normal" in2="effect1_dropShadow_42_2223" result="effect2_dropShadow_42_2223"/>
<feBlend mode="normal" in="SourceGraphic" in2="effect2_dropShadow_42_2223" result="shape"/>
<feColorMatrix in="SourceAlpha" type="matrix" values="0 0 0 0 0 0 0 0 0 0 0 0 0 0 0 0 0 0 127 0" result="hardAlpha"/>
<feOffset dx="-12" dy="12"/>
<feGaussianBlur stdDeviation="15"/>
<feComposite in2="hardAlpha" operator="arithmetic" k2="-1" k3="1"/>
<feColorMatrix type="matrix" values="0 0 0 0 0.498039 0 0 0 0 0.427451 0 0 0 0 0.788235 0 0 0 0.9 0"/>
<feBlend mode="normal" in2="shape" result="effect3_innerShadow_42_2223"/>
<feColorMatrix in="SourceAlpha" type="matrix" values="0 0 0 0 0 0 0 0 0 0 0 0 0 0 0 0 0 0 127 0" result="hardAlpha"/>
<feOffset dx="12" dy="-12"/>
<feGaussianBlur stdDeviation="12"/>
<feComposite in2="hardAlpha" operator="arithmetic" k2="-1" k3="1"/>
<feColorMatrix type="matrix" values="0 0 0 0 0.631373 0 0 0 0 0.545098 0 0 0 0 1 0 0 0 0.9 0"/>
<feBlend mode="normal" in2="effect3_innerShadow_42_2223" result="effect4_innerShadow_42_2223"/>
<feColorMatrix in="SourceAlpha" type="matrix" values="0 0 0 0 0 0 0 0 0 0 0 0 0 0 0 0 0 0 127 0" result="hardAlpha"/>
<feOffset dx="-12" dy="-12"/>
<feGaussianBlur stdDeviation="12"/>
<feComposite in2="hardAlpha" operator="arithmetic" k2="-1" k3="1"/>
<feColorMatrix type="matrix" values="0 0 0 0 0.498039 0 0 0 0 0.427451 0 0 0 0 0.788235 0 0 0 0.2 0"/>
<feBlend mode="normal" in2="effect4_innerShadow_42_2223" result="effect5_innerShadow_42_2223"/>
<feColorMatrix in="SourceAlpha" type="matrix" values="0 0 0 0 0 0 0 0 0 0 0 0 0 0 0 0 0 0 127 0" result="hardAlpha"/>
<feOffset dx="12" dy="12"/>
<feGaussianBlur stdDeviation="12"/>
<feComposite in2="hardAlpha" operator="arithmetic" k2="-1" k3="1"/>
<feColorMatrix type="matrix" values="0 0 0 0 0.498039 0 0 0 0 0.427451 0 0 0 0 0.788235 0 0 0 0.2 0"/>
<feBlend mode="normal" in2="effect5_innerShadow_42_2223" result="effect6_innerShadow_42_2223"/>
</filter>
<linearGradient id="paint0_linear_42_2223" x1="528" y1="136.754" x2="27.1538" y2="479.073" gradientUnits="userSpaceOnUse">
<stop offset="0.234375" stop-color="#C191FE"/>
<stop offset="1" stop-color="#907CE4"/>
</linearGradient>
<clipPath id="clip0_42_2223">
<rect x="16" y="136.754" width="512" height="326" rx="25.466" fill="white"/>
</clipPath>
</defs>
</svg>
